<?xml version="1.0" standalone="no"?><svg xmlns="http://www.w3.org/2000/svg" viewBox="0 0 1440 320"><path fill="#424350" fill-opacity="1" d="M0,224L12.6,213.3C25.3,203,51,181,76,170.7C101.1,160,126,160,152,138.7C176.8,117,202,75,227,80C252.6,85,278,139,303,176C328.4,213,354,235,379,213.3C404.2,192,429,128,455,85.3C480,43,505,21,531,37.3C555.8,53,581,107,606,128C631.6,149,657,139,682,133.3C707.4,128,733,128,758,149.3C783.2,171,808,213,834,224C858.9,235,884,213,909,197.3C934.7,181,960,171,985,160C1010.5,149,1036,139,1061,149.3C1086.3,160,1112,192,1137,218.7C1162.1,245,1187,267,1213,266.7C1237.9,267,1263,245,1288,224C1313.7,203,1339,181,1364,154.7C1389.5,128,1415,96,1427,80L1440,64L1440,320L1427.4,320C1414.7,320,1389,320,1364,320C1338.9,320,1314,320,1288,320C1263.2,320,1238,320,1213,320C1187.4,320,1162,320,1137,320C1111.6,320,1086,320,1061,320C1035.8,320,1011,320,985,320C960,320,935,320,909,320C884.2,320,859,320,834,320C808.4,320,783,320,758,320C732.6,320,707,320,682,320C656.8,320,632,320,606,320C581.1,320,556,320,531,320C505.3,320,480,320,455,320C429.5,320,404,320,379,320C353.7,320,328,320,303,320C277.9,320,253,320,227,320C202.1,320,177,320,152,320C126.3,320,101,320,76,320C50.5,320,25,320,13,320L0,320Z"></path></svg>